# xmcd CD database file
#
# Track frame offsets:
#	150
#	12715
#	52001
#	75720
#	101720
#	116837
#	143392
#	167883
#	186374
#	214673
#	255588
#
# Disc length: 3649 seconds
#
# Revision: 0
# Processed by: cddbd v1.5.2PL0 Copyright (c) Steve Scherf et al.
# Submitted via: CDex 1.51
#
DISCID=9c0e3f0b
DTITLE=Soo Cho Quartet - Prayer
DYEAR=2008
DGENRE=Jazz
TTITLE0=Chicky Chicky
TTITLE1=Empty Caroussel
TTITLE2=Prayer
TTITLE3=Suspicion
TTITLE4=Breeze
TTITLE5=Misty Cliffs
TTITLE6=Song for both
TTITLE7=September Moon
TTITLE8=New Chapter
TTITLE9=Dreamer
TTITLE10=Waiting
EXTD=YEAR: 2008
EXTT0=
EXTT1=
EXTT2=
EXTT3=
EXTT4=
EXTT5=
EXTT6=
EXTT7=
EXTT8=
EXTT9=
EXTT10=
PLAYORDER=
